<svg xmlns="http://www.w3.org/2000/svg" width="105.614" height="107.817" viewBox="0 0 105.614 107.817">
  <g id="Centralizada" transform="translate(-581.349 -4130.486)">
    <g id="Grupo_194" data-name="Grupo 194" transform="translate(584.678 4183.082)">
      <path id="Trazado_20585" data-name="Trazado 20585" d="M681.821,4201.077h-2.663v-32.013a11.994,11.994,0,0,0-11.981-11.981H597.506a11.994,11.994,0,0,0-11.981,11.981v32.013h-2.661v-32.013a14.661,14.661,0,0,1,14.642-14.645h69.671a14.663,14.663,0,0,1,14.644,14.645Z" transform="translate(-582.864 -4154.419)" fill="#54565a"/>
    </g>
    <g id="Grupo_195" data-name="Grupo 195" transform="translate(584.678 4138.331)">
      <path id="Trazado_20586" data-name="Trazado 20586" d="M667.177,4181.469H597.506a14.66,14.66,0,0,1-14.642-14.645v-32.769h2.661v32.769a11.994,11.994,0,0,0,11.981,11.981h69.671a11.994,11.994,0,0,0,11.981-11.981v-32.769h2.663v32.769A14.662,14.662,0,0,1,667.177,4181.469Z" transform="translate(-582.864 -4134.056)" fill="#54565a"/>
    </g>
    <g id="Grupo_196" data-name="Grupo 196" transform="translate(632.839 4138.293)">
      <rect id="Rectángulo_114" data-name="Rectángulo 114" width="2.662" height="91.446" fill="#54565a"/>
    </g>
    <g id="Grupo_197" data-name="Grupo 197" transform="translate(629.497 4228.985)">
      <circle id="Elipse_125" data-name="Elipse 125" cx="4.659" cy="4.659" r="4.659" fill="#54565a"/>
    </g>
    <g id="Grupo_198" data-name="Grupo 198" transform="translate(677.644 4228.985)">
      <circle id="Elipse_126" data-name="Elipse 126" cx="4.659" cy="4.659" r="4.659" fill="#54565a"/>
    </g>
    <g id="Grupo_199" data-name="Grupo 199" transform="translate(581.349 4228.985)">
      <circle id="Elipse_127" data-name="Elipse 127" cx="4.659" cy="4.659" r="4.659" fill="#54565a"/>
    </g>
    <g id="Grupo_200" data-name="Grupo 200" transform="translate(629.497 4179.753)">
      <circle id="Elipse_128" data-name="Elipse 128" cx="4.659" cy="4.659" r="4.659" fill="#54565a"/>
    </g>
    <g id="Grupo_201" data-name="Grupo 201" transform="translate(629.497 4130.486)">
      <circle id="Elipse_129" data-name="Elipse 129" cx="4.659" cy="4.659" r="4.659" fill="#54565a"/>
    </g>
    <g id="Grupo_202" data-name="Grupo 202" transform="translate(677.644 4130.486)">
      <circle id="Elipse_130" data-name="Elipse 130" cx="4.659" cy="4.659" r="4.659" fill="#54565a"/>
    </g>
    <g id="Grupo_203" data-name="Grupo 203" transform="translate(581.349 4130.486)">
      <circle id="Elipse_131" data-name="Elipse 131" cx="4.659" cy="4.659" r="4.659" fill="#54565a"/>
    </g>
  </g>
</svg>
