<svg xmlns="http://www.w3.org/2000/svg" width="48.06" height="49.063" viewBox="0 0 48.06 49.063">
  <g id="Centralizada" transform="translate(-581.349 -4130.486)">
    <g id="Grupo_194" data-name="Grupo 194">
      <path id="Trazado_20585" data-name="Trazado 20585" d="M627.9,4175.652h-1.212v-14.568a5.458,5.458,0,0,0-5.452-5.452h-31.7a5.458,5.458,0,0,0-5.452,5.452v14.568h-1.211v-14.568a6.672,6.672,0,0,1,6.663-6.664h31.7a6.672,6.672,0,0,1,6.664,6.664Z" fill="#fff"/>
    </g>
    <g id="Grupo_195" data-name="Grupo 195">
      <path id="Trazado_20586" data-name="Trazado 20586" d="M621.231,4155.632h-31.7a6.671,6.671,0,0,1-6.663-6.664v-14.912h1.211v14.912a5.458,5.458,0,0,0,5.452,5.452h31.7a5.458,5.458,0,0,0,5.452-5.452v-14.912H627.9v14.912A6.672,6.672,0,0,1,621.231,4155.632Z" fill="#fff"/>
    </g>
    <g id="Grupo_196" data-name="Grupo 196">
      <rect id="Rectángulo_114" data-name="Rectángulo 114" width="1.212" height="41.613" transform="translate(604.78 4134.039)" fill="#fff"/>
    </g>
    <g id="Grupo_197" data-name="Grupo 197">
      <circle id="Elipse_125" data-name="Elipse 125" cx="2.12" cy="2.12" r="2.12" transform="translate(603.259 4175.309)" fill="#fff"/>
    </g>
    <g id="Grupo_198" data-name="Grupo 198">
      <circle id="Elipse_126" data-name="Elipse 126" cx="2.12" cy="2.12" r="2.12" transform="translate(625.169 4175.309)" fill="#fff"/>
    </g>
    <g id="Grupo_199" data-name="Grupo 199">
      <circle id="Elipse_127" data-name="Elipse 127" cx="2.12" cy="2.12" r="2.12" transform="translate(581.349 4175.309)" fill="#fff"/>
    </g>
    <g id="Grupo_200" data-name="Grupo 200">
      <circle id="Elipse_128" data-name="Elipse 128" cx="2.12" cy="2.12" r="2.12" transform="translate(603.259 4152.905)" fill="#fff"/>
    </g>
    <g id="Grupo_201" data-name="Grupo 201">
      <circle id="Elipse_129" data-name="Elipse 129" cx="2.12" cy="2.12" r="2.12" transform="translate(603.259 4130.486)" fill="#fff"/>
    </g>
    <g id="Grupo_202" data-name="Grupo 202">
      <circle id="Elipse_130" data-name="Elipse 130" cx="2.12" cy="2.12" r="2.12" transform="translate(625.169 4130.486)" fill="#fff"/>
    </g>
    <g id="Grupo_203" data-name="Grupo 203">
      <circle id="Elipse_131" data-name="Elipse 131" cx="2.12" cy="2.12" r="2.12" transform="translate(581.349 4130.486)" fill="#fff"/>
    </g>
  </g>
</svg>
