<svg xmlns="http://www.w3.org/2000/svg" width="11.407" height="24.554" viewBox="0 0 11.407 24.554">
  <path id="Trazado_20431" data-name="Trazado 20431" d="M-471.339,206.748v11.871a.309.309,0,0,0,.309.309h4.408a.309.309,0,0,0,.309-.309V206.554h3.2a.309.309,0,0,0,.308-.283l.307-3.635a.309.309,0,0,0-.308-.336h-3.5v-2.579a1.1,1.1,0,0,1,1.094-1.095h2.464a.309.309,0,0,0,.309-.309v-3.635a.309.309,0,0,0-.309-.309h-4.163a4.422,4.422,0,0,0-4.422,4.422v3.5h-2.2a.309.309,0,0,0-.309.309v3.635a.309.309,0,0,0,.309.309h2.2Z" transform="translate(473.852 -194.374)" fill="#fff" fill-rule="evenodd"/>
</svg>
