<svg xmlns="http://www.w3.org/2000/svg" width="25.685" height="25.685" viewBox="0 0 25.685 25.685">
  <g id="Grupo_34" data-name="Grupo 34" transform="translate(0)">
    <circle id="Elipse_26" data-name="Elipse 26" cx="1.506" cy="1.506" r="1.506" transform="translate(18.137 4.586)" fill="#fff"/>
    <path id="Trazado_20429" data-name="Trazado 20429" d="M-389.922,204.306a6.332,6.332,0,0,0-6.325,6.325,6.333,6.333,0,0,0,6.325,6.325,6.333,6.333,0,0,0,6.325-6.325A6.332,6.332,0,0,0-389.922,204.306Zm0,10.377a4.056,4.056,0,0,1-4.052-4.052,4.056,4.056,0,0,1,4.052-4.052,4.056,4.056,0,0,1,4.052,4.052A4.056,4.056,0,0,1-389.922,214.683Z" transform="translate(402.87 -197.789)" fill="#fff"/>
    <path id="Trazado_20430" data-name="Trazado 20430" d="M-389.328,219.116h-10.254A7.724,7.724,0,0,1-407.3,211.4V201.146a7.724,7.724,0,0,1,7.715-7.715h10.254a7.724,7.724,0,0,1,7.715,7.715V211.4A7.724,7.724,0,0,1-389.328,219.116Zm-10.254-23.268a5.3,5.3,0,0,0-5.3,5.3V211.4a5.3,5.3,0,0,0,5.3,5.3h10.254a5.3,5.3,0,0,0,5.3-5.3V201.146a5.3,5.3,0,0,0-5.3-5.3Z" transform="translate(407.298 -193.431)" fill="#fff"/>
  </g>
</svg>
