<svg id="Grupo_35" data-name="Grupo 35" xmlns="http://www.w3.org/2000/svg" width="20.449" height="20.402" viewBox="0 0 20.449 20.402">
  <path id="Trazado_20432" data-name="Trazado 20432" d="M-245.659,204.612h4.243V218.24h-4.243Zm2.122-6.772a2.456,2.456,0,0,1,2.456,2.454,2.458,2.458,0,0,1-2.456,2.458A2.459,2.459,0,0,1-246,200.293a2.457,2.457,0,0,1,2.459-2.454" transform="translate(245.996 -197.839)" fill="#fff"/>
  <path id="Trazado_20433" data-name="Trazado 20433" d="M-233.917,208.914h4.064v1.864h.055a4.454,4.454,0,0,1,4.012-2.2c4.289,0,5.08,2.821,5.08,6.491v7.475h-4.233v-6.626c0-1.582-.031-3.614-2.2-3.614-2.205,0-2.542,1.722-2.542,3.5v6.741h-4.234Z" transform="translate(241.156 -202.142)" fill="#fff"/>
</svg>
