<svg xmlns="http://www.w3.org/2000/svg" width="51.222" height="52.291" viewBox="0 0 51.222 52.291">
  <g id="Informacion" transform="translate(-775.253 -4128.872)">
    <g id="Grupo_204" data-name="Grupo 204">
      <circle id="Elipse_132" data-name="Elipse 132" cx="2.26" cy="2.26" r="2.26" transform="translate(821.956 4176.644)" fill="#fff"/>
    </g>
    <g id="Grupo_205" data-name="Grupo 205">
      <path id="Trazado_20587" data-name="Trazado 20587" d="M800.865,4155.369a2.905,2.905,0,0,1-2.055-4.96,2.977,2.977,0,0,1,4.109,0,2.906,2.906,0,0,1-2.054,4.96Zm0-4.519a1.614,1.614,0,0,0-1.142,2.755,1.653,1.653,0,0,0,2.283,0,1.613,1.613,0,0,0-1.141-2.755Z" fill="#fff"/>
    </g>
    <g id="Grupo_206" data-name="Grupo 206">
      <circle id="Elipse_133" data-name="Elipse 133" cx="2.26" cy="2.26" r="2.26" transform="translate(775.253 4176.644)" fill="#fff"/>
    </g>
    <g id="Grupo_207" data-name="Grupo 207">
      <circle id="Elipse_134" data-name="Elipse 134" cx="2.26" cy="2.26" r="2.26" transform="translate(775.253 4150.204)" fill="#fff"/>
    </g>
    <g id="Grupo_208" data-name="Grupo 208">
      <circle id="Elipse_135" data-name="Elipse 135" cx="2.26" cy="2.26" r="2.26" transform="translate(821.956 4150.204)" fill="#fff"/>
    </g>
    <g id="Grupo_209" data-name="Grupo 209">
      <circle id="Elipse_136" data-name="Elipse 136" cx="2.26" cy="2.26" r="2.26" transform="translate(798.51 4128.872)" fill="#fff"/>
    </g>
    <g id="Grupo_210" data-name="Grupo 210">
      <path id="Trazado_20588" data-name="Trazado 20588" d="M780.388,4180.438a3.368,3.368,0,0,1-1.465-.343,3.723,3.723,0,0,1-2.055-3.4v-38.582a7.386,7.386,0,0,1,7.1-7.625h33.79a7.387,7.387,0,0,1,7.1,7.625v25.805a7.386,7.386,0,0,1-7.1,7.624H794.18l-11.756,8.179A3.272,3.272,0,0,1,780.388,4180.438Zm3.582-48.661a6.1,6.1,0,0,0-5.811,6.334v38.582a2.437,2.437,0,0,0,1.328,2.24,2,2,0,0,0,2.169-.25l12.118-8.434H817.76a6.1,6.1,0,0,0,5.81-6.333v-25.805a6.1,6.1,0,0,0-5.81-6.334Z" fill="#fff"/>
    </g>
  </g>
</svg>
