<svg xmlns="http://www.w3.org/2000/svg" width="105.15" height="107.588" viewBox="0 0 105.15 107.588">
  <g id="Informacion" transform="translate(-775.253 -4128.872)">
    <g id="Grupo_204" data-name="Grupo 204" transform="translate(871.158 4227.215)">
      <circle id="Elipse_132" data-name="Elipse 132" cx="4.622" cy="4.622" r="4.622" fill="#54565a"/>
    </g>
    <g id="Grupo_205" data-name="Grupo 205" transform="translate(821.885 4171.522)">
      <path id="Trazado_20587" data-name="Trazado 20587" d="M803.9,4161.415a5.943,5.943,0,0,1-4.2-10.146,6.09,6.09,0,0,1,8.405,0,5.943,5.943,0,0,1-4.2,10.146Zm0-9.243a3.3,3.3,0,0,0-2.336,5.635,3.38,3.38,0,0,0,4.67,0,3.3,3.3,0,0,0-2.334-5.635Z" transform="translate(-797.959 -4149.586)" fill="#54565a"/>
    </g>
    <g id="Grupo_206" data-name="Grupo 206" transform="translate(775.253 4227.215)">
      <circle id="Elipse_133" data-name="Elipse 133" cx="4.622" cy="4.622" r="4.622" fill="#54565a"/>
    </g>
    <g id="Grupo_207" data-name="Grupo 207" transform="translate(775.253 4172.787)">
      <circle id="Elipse_134" data-name="Elipse 134" cx="4.622" cy="4.622" r="4.622" fill="#54565a"/>
    </g>
    <g id="Grupo_208" data-name="Grupo 208" transform="translate(871.158 4172.787)">
      <circle id="Elipse_135" data-name="Elipse 135" cx="4.622" cy="4.622" r="4.622" fill="#54565a"/>
    </g>
    <g id="Grupo_209" data-name="Grupo 209" transform="translate(823.01 4128.872)">
      <circle id="Elipse_136" data-name="Elipse 136" cx="4.622" cy="4.622" r="4.622" fill="#54565a"/>
    </g>
    <g id="Grupo_210" data-name="Grupo 210" transform="translate(778.556 4132.173)">
      <path id="Trazado_20588" data-name="Trazado 20588" d="M784.1,4233.29a6.9,6.9,0,0,1-3.008-.706,7.662,7.662,0,0,1-4.219-7v-79.4c0-8.651,6.542-15.693,14.582-15.693h69.381c8.039,0,14.583,7.042,14.583,15.693v53.108c0,8.652-6.544,15.691-14.583,15.691H812.415l-24.139,16.833A6.709,6.709,0,0,1,784.1,4233.29Zm7.355-100.147c-6.581,0-11.932,5.848-11.932,13.037v79.4a5.016,5.016,0,0,0,2.727,4.61,4.092,4.092,0,0,0,4.454-.514l24.882-17.359h49.25c6.579,0,11.93-5.846,11.93-13.033v-53.108c0-7.188-5.351-13.037-11.93-13.037Z" transform="translate(-776.868 -4130.485)" fill="#54565a"/>
    </g>
  </g>
</svg>
