<svg xmlns="http://www.w3.org/2000/svg" width="111.943" height="103.442" viewBox="0 0 111.943 103.442">
  <g id="Logo_DIXO_2" transform="translate(-106.109 -361.185)">
    <circle id="Elipse_7" data-name="Elipse 7" cx="3.555" cy="3.555" r="3.555" transform="translate(122.644 361.185)" fill="#b4b9bc"/>
    <circle id="Elipse_8" data-name="Elipse 8" cx="3.555" cy="3.555" r="3.555" transform="translate(158.89 361.185)" fill="#e8e11b"/>
    <circle id="Elipse_9" data-name="Elipse 9" cx="3.555" cy="3.555" r="3.555" transform="translate(195.137 361.185)" fill="#b4b9bc"/>
    <circle id="Elipse_10" data-name="Elipse 10" cx="3.555" cy="3.555" r="3.555" transform="translate(122.644 433.678)" fill="#b4b9bc"/>
    <circle id="Elipse_11" data-name="Elipse 11" cx="3.555" cy="3.555" r="3.555" transform="translate(158.89 433.678)" fill="#b4b9bc"/>
    <path id="Trazado_11" data-name="Trazado 11" d="M125.025,391.113h-6.6v19.748h6.6c6.115,0,9.914-3.789,9.914-9.887C134.939,394.984,131.047,391.113,125.025,391.113Zm6.784,9.861c0,4.462-2.54,7.021-6.968,7.021h-3.36V393.98h3.36C129.2,393.98,131.809,396.6,131.809,400.974Z" fill="#b4b9bc"/>
    <path id="Trazado_12" data-name="Trazado 12" d="M200.586,400.579l5.8-9.466h-3.61l-3.442,5.774c-.235.384-.46.8-.647,1.169-.207-.364-.445-.782-.667-1.162l-3.418-5.781h-3.581l5.747,9.465-6.276,10.283h3.555l3.973-6.675c.228-.384.451-.785.639-1.133.193.343.418.737.646,1.109l4.025,6.7h3.557Z" fill="#b4b9bc"/>
    <path id="Trazado_13" data-name="Trazado 13" d="M198.692,427.044a9.95,9.95,0,0,0-10.045,10.071,10.048,10.048,0,1,0,20.09,0A9.95,9.95,0,0,0,198.692,427.044Zm6.915,10.071a6.931,6.931,0,1,1-13.831,0,6.919,6.919,0,1,1,13.831,0Z" fill="#b4b9bc"/>
    <path id="Trazado_14" data-name="Trazado 14" d="M165.294,394.443v-3.386h-5.7v3.386h1.323v13.088H159.6v3.385h5.7v-3.385H163.97V394.443Z" fill="#b4b9bc"/>
    <g id="Grupo_2" data-name="Grupo 2">
      <path id="Trazado_15" data-name="Trazado 15" d="M108.034,459a1.628,1.628,0,0,1,1.631,1.8c0,.093-.016.272-.016.272h-3a1.471,1.471,0,0,0,1.514,1.545,1.813,1.813,0,0,0,1.188-.474l.241.4a2.24,2.24,0,0,1-1.444.543,1.973,1.973,0,0,1-2.042-2.042A1.905,1.905,0,0,1,108.034,459Zm1.1,1.638a1.1,1.1,0,0,0-1.11-1.2,1.326,1.326,0,0,0-1.344,1.2Z" fill="#b4b9bc"/>
      <path id="Trazado_16" data-name="Trazado 16" d="M113.105,459a1.378,1.378,0,0,1,1.273.737h.016a2.711,2.711,0,0,1-.016-.295v-1.9h.528V463h-.512v-.411a2.129,2.129,0,0,1,.016-.28h-.016a1.414,1.414,0,0,1-1.344.784c-1.048,0-1.7-.838-1.7-2.049A1.818,1.818,0,0,1,113.105,459Zm.023,3.618c.652,0,1.266-.466,1.266-1.576,0-.792-.4-1.569-1.243-1.569-.69,0-1.257.582-1.257,1.569C111.894,462,112.4,462.616,113.128,462.616Z" fill="#b4b9bc"/>
      <path id="Trazado_17" data-name="Trazado 17" d="M117.1,457.538h.551v.66H117.1Zm.015,1.553h.528V463h-.528Z" fill="#b4b9bc"/>
      <path id="Trazado_18" data-name="Trazado 18" d="M120.024,459.58h-.489v-.443h.489v-.186a1.275,1.275,0,0,1,1.351-1.452,1.567,1.567,0,0,1,.241.016v.474a1.027,1.027,0,0,0-.187-.016c-.3,0-.877.109-.877.978v.186h1v.443h-1V463h-.528Z" fill="#b4b9bc"/>
      <path id="Trazado_19" data-name="Trazado 19" d="M123.247,457.538h.551v.66h-.551Zm.015,1.553h.528V463h-.528Z" fill="#b4b9bc"/>
      <path id="Trazado_20" data-name="Trazado 20" d="M127.774,459a1.92,1.92,0,0,1,1.428.559l-.272.4a1.65,1.65,0,0,0-1.141-.474,1.5,1.5,0,0,0-1.522,1.568,1.515,1.515,0,0,0,1.538,1.569,1.72,1.72,0,0,0,1.25-.551l.241.411a2.086,2.086,0,0,1-1.522.613,2.046,2.046,0,1,1,0-4.091Z" fill="#b4b9bc"/>
      <path id="Trazado_21" data-name="Trazado 21" d="M133.264,460.582h.217v-.1a.878.878,0,0,0-.971-1.01,1.9,1.9,0,0,0-1.1.373l-.248-.4a2.243,2.243,0,0,1,1.389-.442,1.33,1.33,0,0,1,1.46,1.5V463H133.5v-.427a3,3,0,0,1,.016-.326H133.5a1.41,1.41,0,0,1-1.3.846,1.21,1.21,0,0,1-1.328-1.156C130.872,460.613,132.588,460.582,133.264,460.582Zm-.979,2.057a1.362,1.362,0,0,0,1.2-1.452v-.17h-.225c-.614,0-1.841.023-1.841.885A.777.777,0,0,0,132.285,462.639Z" fill="#b4b9bc"/>
      <path id="Trazado_22" data-name="Trazado 22" d="M137.939,459a1.923,1.923,0,0,1,1.428.559l-.272.4a1.651,1.651,0,0,0-1.141-.474,1.5,1.5,0,0,0-1.522,1.568,1.515,1.515,0,0,0,1.538,1.569,1.717,1.717,0,0,0,1.249-.551l.241.411a2.085,2.085,0,0,1-1.521.613,2.046,2.046,0,1,1,0-4.091Z" fill="#b4b9bc"/>
      <path id="Trazado_23" data-name="Trazado 23" d="M141.34,457.538h.551v.66h-.551Zm.015,1.553h.529V463h-.529Z" fill="#b4b9bc"/>
      <path id="Trazado_24" data-name="Trazado 24" d="M145.867,459a2.046,2.046,0,1,1-2.066,2.026A2.021,2.021,0,0,1,145.867,459Zm0,3.618a1.541,1.541,0,0,0,1.522-1.592,1.522,1.522,0,1,0-3.044,0A1.541,1.541,0,0,0,145.867,462.616Z" fill="#b4b9bc"/>
      <path id="Trazado_25" data-name="Trazado 25" d="M149.85,459.091h.52v.582c0,.171-.015.311-.015.311h.015a1.664,1.664,0,0,1,1.561-.986c.963,0,1.3.551,1.3,1.514V463h-.529v-2.345c0-.613-.093-1.156-.846-1.156a1.483,1.483,0,0,0-1.42,1.1,1.917,1.917,0,0,0-.063.528V463h-.528Z" fill="#b4b9bc"/>
      <path id="Trazado_26" data-name="Trazado 26" d="M157.041,459a1.628,1.628,0,0,1,1.63,1.8c0,.093-.015.272-.015.272h-3a1.47,1.47,0,0,0,1.514,1.545,1.816,1.816,0,0,0,1.188-.474l.24.4a2.237,2.237,0,0,1-1.444.543,1.974,1.974,0,0,1-2.042-2.042A1.906,1.906,0,0,1,157.041,459Zm1.1,1.638a1.1,1.1,0,0,0-1.111-1.2,1.325,1.325,0,0,0-1.343,1.2Z" fill="#b4b9bc"/>
      <path id="Trazado_27" data-name="Trazado 27" d="M160.583,462.142a1.672,1.672,0,0,0,1.164.474c.419,0,.784-.21.784-.621,0-.854-2.1-.645-2.1-1.918,0-.7.629-1.079,1.335-1.079a1.642,1.642,0,0,1,1.2.427l-.241.4a1.381,1.381,0,0,0-.978-.358c-.4,0-.776.171-.776.606,0,.862,2.1.629,2.1,1.918,0,.637-.552,1.094-1.336,1.094a1.991,1.991,0,0,1-1.444-.566Z" fill="#b4b9bc"/>
      <path id="Trazado_28" data-name="Trazado 28" d="M167.991,457.538h.551v.66h-.551Zm.015,1.553h.528V463h-.528Z" fill="#b4b9bc"/>
      <path id="Trazado_29" data-name="Trazado 29" d="M170.739,459.091h.52v.582c0,.171-.015.311-.015.311h.015A1.664,1.664,0,0,1,172.82,459c.963,0,1.3.551,1.3,1.514V463H173.6v-2.345c0-.613-.093-1.156-.846-1.156a1.485,1.485,0,0,0-1.421,1.1,1.917,1.917,0,0,0-.062.528V463h-.528Z" fill="#b4b9bc"/>
      <path id="Trazado_30" data-name="Trazado 30" d="M176.423,459.58h-.512v-.443h.52v-1.125h.52v1.125h.979v.443h-.979v1.941c0,.916.583,1.033.878,1.033a.88.88,0,0,0,.178-.016v.474a1.429,1.429,0,0,1-.225.015,1.269,1.269,0,0,1-1.359-1.452Z" fill="#b4b9bc"/>
      <path id="Trazado_31" data-name="Trazado 31" d="M181.463,459a1.628,1.628,0,0,1,1.63,1.8c0,.093-.015.272-.015.272h-3a1.47,1.47,0,0,0,1.513,1.545,1.817,1.817,0,0,0,1.189-.474l.24.4a2.237,2.237,0,0,1-1.444.543,1.974,1.974,0,0,1-2.042-2.042A1.906,1.906,0,0,1,181.463,459Zm1.1,1.638a1.1,1.1,0,0,0-1.111-1.2,1.324,1.324,0,0,0-1.343,1.2Z" fill="#b4b9bc"/>
      <path id="Trazado_32" data-name="Trazado 32" d="M185,457.538h.528v4.418c0,.512.233.59.435.59a1.185,1.185,0,0,0,.132-.008v.474a1.377,1.377,0,0,1-.194.015c-.326,0-.9-.1-.9-.955Z" fill="#b4b9bc"/>
      <path id="Trazado_33" data-name="Trazado 33" d="M187.87,457.538h.551v.66h-.551Zm.015,1.553h.528V463h-.528Z" fill="#b4b9bc"/>
      <path id="Trazado_34" data-name="Trazado 34" d="M191.969,464.153c.761,0,1.366-.357,1.366-1.226v-.358a2.616,2.616,0,0,1,.016-.279h-.016a1.284,1.284,0,0,1-1.234.683,1.793,1.793,0,0,1-1.739-2c0-1.172.644-1.972,1.693-1.972a1.284,1.284,0,0,1,1.288.652h.016a.857.857,0,0,1-.008-.132v-.427h.513V462.9a1.674,1.674,0,0,1-1.872,1.724,2.866,2.866,0,0,1-1.281-.311l.2-.435A2.394,2.394,0,0,0,191.969,464.153Zm1.374-3.183c0-1.141-.543-1.491-1.234-1.491-.761,0-1.2.551-1.2,1.483s.505,1.537,1.281,1.537C192.8,462.5,193.343,462.119,193.343,460.97Z" fill="#b4b9bc"/>
      <path id="Trazado_35" data-name="Trazado 35" d="M197.723,459a1.628,1.628,0,0,1,1.631,1.8c0,.093-.016.272-.016.272h-3a1.472,1.472,0,0,0,1.515,1.545,1.812,1.812,0,0,0,1.187-.474l.241.4a2.24,2.24,0,0,1-1.444.543,1.973,1.973,0,0,1-2.042-2.042A1.905,1.905,0,0,1,197.723,459Zm1.095,1.638a1.1,1.1,0,0,0-1.11-1.2,1.324,1.324,0,0,0-1.343,1.2Z" fill="#b4b9bc"/>
      <path id="Trazado_36" data-name="Trazado 36" d="M201.295,459.091h.52v.582c0,.171-.015.311-.015.311h.015a1.664,1.664,0,0,1,1.561-.986c.963,0,1.3.551,1.3,1.514V463h-.529v-2.345c0-.613-.093-1.156-.846-1.156a1.484,1.484,0,0,0-1.42,1.1,1.917,1.917,0,0,0-.063.528V463h-.528Z" fill="#b4b9bc"/>
      <path id="Trazado_37" data-name="Trazado 37" d="M206.979,459.58h-.512v-.443h.52v-1.125h.521v1.125h.978v.443h-.978v1.941c0,.916.582,1.033.877,1.033a.9.9,0,0,0,.179-.016v.474a1.451,1.451,0,0,1-.226.015,1.269,1.269,0,0,1-1.359-1.452Z" fill="#b4b9bc"/>
      <path id="Trazado_38" data-name="Trazado 38" d="M212.019,459a1.628,1.628,0,0,1,1.631,1.8c0,.093-.016.272-.016.272h-3a1.471,1.471,0,0,0,1.514,1.545,1.813,1.813,0,0,0,1.188-.474l.241.4a2.24,2.24,0,0,1-1.444.543,1.974,1.974,0,0,1-2.043-2.042A1.906,1.906,0,0,1,212.019,459Zm1.1,1.638a1.1,1.1,0,0,0-1.111-1.2,1.323,1.323,0,0,0-1.342,1.2Z" fill="#b4b9bc"/>
      <path id="Trazado_39" data-name="Trazado 39" d="M215.56,462.142a1.676,1.676,0,0,0,1.165.474c.419,0,.784-.21.784-.621,0-.854-2.1-.645-2.1-1.918,0-.7.629-1.079,1.335-1.079a1.645,1.645,0,0,1,1.2.427l-.241.4a1.384,1.384,0,0,0-.978-.358c-.4,0-.777.171-.777.606,0,.862,2.1.629,2.1,1.918,0,.637-.551,1.094-1.335,1.094a1.991,1.991,0,0,1-1.444-.566Z" fill="#b4b9bc"/>
    </g>
  </g>
</svg>
