<svg xmlns="http://www.w3.org/2000/svg" width="105.265" height="107.461" viewBox="0 0 105.265 107.461">
  <g id="seguridad" transform="translate(-970.814 -4128.95)">
    <g id="Grupo_211" data-name="Grupo 211" transform="translate(1066.792 4227.123)">
      <circle id="Elipse_137" data-name="Elipse 137" cx="4.644" cy="4.644" r="4.644" fill="#54565a"/>
    </g>
    <g id="Grupo_212" data-name="Grupo 212" transform="translate(970.814 4227.123)">
      <circle id="Elipse_138" data-name="Elipse 138" cx="4.644" cy="4.644" r="4.644" fill="#54565a"/>
    </g>
    <g id="Grupo_213" data-name="Grupo 213" transform="translate(1017.479 4176.731)">
      <path id="Trazado_20589" data-name="Trazado 20589" d="M999.423,4164.066a5.969,5.969,0,1,1,4.221-1.748A5.953,5.953,0,0,1,999.423,4164.066Zm0-9.283a3.314,3.314,0,1,0,2.344.969A3.311,3.311,0,0,0,999.423,4154.783Z" transform="translate(-993.454 -4152.131)" fill="#54565a"/>
    </g>
    <g id="Grupo_214" data-name="Grupo 214" transform="translate(1018.803 4227.105)">
      <circle id="Elipse_139" data-name="Elipse 139" cx="4.644" cy="4.644" r="4.644" fill="#54565a"/>
    </g>
    <g id="Grupo_215" data-name="Grupo 215" transform="translate(1018.803 4128.95)">
      <circle id="Elipse_140" data-name="Elipse 140" cx="4.644" cy="4.644" r="4.644" fill="#54565a"/>
    </g>
    <g id="Grupo_216" data-name="Grupo 216" transform="translate(970.814 4178.053)">
      <circle id="Elipse_141" data-name="Elipse 141" cx="4.644" cy="4.644" r="4.644" fill="#54565a"/>
    </g>
    <g id="Grupo_217" data-name="Grupo 217" transform="translate(1066.792 4178.053)">
      <circle id="Elipse_142" data-name="Elipse 142" cx="4.644" cy="4.644" r="4.644" fill="#54565a"/>
    </g>
    <g id="Grupo_218" data-name="Grupo 218" transform="translate(1066.792 4128.95)">
      <circle id="Elipse_143" data-name="Elipse 143" cx="4.644" cy="4.644" r="4.644" fill="#54565a"/>
    </g>
    <g id="Grupo_219" data-name="Grupo 219" transform="translate(970.814 4128.95)">
      <circle id="Elipse_144" data-name="Elipse 144" cx="4.644" cy="4.644" r="4.644" fill="#54565a"/>
    </g>
    <g id="Grupo_220" data-name="Grupo 220" transform="translate(972.288 4132.289)">
      <path id="Trazado_20590" data-name="Trazado 20590" d="M1022.528,4231.346c-38.307-4.693-47.92-43.705-50.241-66.54-.027-.239-1.974-23.938.482-24.765l49.67-9.471.5,2.607-48.522,9.24c-.4,6.027-1.935,43.565,15.784,67.4a46.234,46.234,0,0,0,32.651,18.9Z" transform="translate(-971.529 -4130.569)" fill="#54565a"/>
    </g>
    <g id="Grupo_221" data-name="Grupo 221" transform="translate(1023.198 4132.289)">
      <path id="Trazado_20591" data-name="Trazado 20591" d="M996.639,4231.346l-.321-2.634a46.23,46.23,0,0,0,32.649-18.9c17.724-23.837,16.184-61.38,15.784-67.4l-48.522-9.24.5-2.607L1046.22,4140c2.632.87.684,24.569.658,24.809C1044.557,4187.641,1034.946,4226.653,996.639,4231.346Z" transform="translate(-996.229 -4130.569)" fill="#54565a"/>
    </g>
  </g>
</svg>
