<svg xmlns="http://www.w3.org/2000/svg" width="51.071" height="52.136" viewBox="0 0 51.071 52.136">
  <g id="seguridad" transform="translate(-970.814 -4128.95)">
    <g id="Grupo_211" data-name="Grupo 211">
      <circle id="Elipse_137" data-name="Elipse 137" cx="2.253" cy="2.253" r="2.253" transform="translate(1017.379 4176.58)" fill="#fff"/>
    </g>
    <g id="Grupo_212" data-name="Grupo 212">
      <circle id="Elipse_138" data-name="Elipse 138" cx="2.253" cy="2.253" r="2.253" transform="translate(970.814 4176.58)" fill="#fff"/>
    </g>
    <g id="Grupo_213" data-name="Grupo 213">
      <path id="Trazado_20589" data-name="Trazado 20589" d="M996.35,4157.922a2.9,2.9,0,1,1,2.048-.848A2.889,2.889,0,0,1,996.35,4157.922Zm0-4.5a1.608,1.608,0,1,0,1.137.47A1.606,1.606,0,0,0,996.35,4153.418Z" fill="#fff"/>
    </g>
    <g id="Grupo_214" data-name="Grupo 214">
      <circle id="Elipse_139" data-name="Elipse 139" cx="2.253" cy="2.253" r="2.253" transform="translate(994.096 4176.571)" fill="#fff"/>
    </g>
    <g id="Grupo_215" data-name="Grupo 215">
      <circle id="Elipse_140" data-name="Elipse 140" cx="2.253" cy="2.253" r="2.253" transform="translate(994.096 4128.95)" fill="#fff"/>
    </g>
    <g id="Grupo_216" data-name="Grupo 216">
      <circle id="Elipse_141" data-name="Elipse 141" cx="2.253" cy="2.253" r="2.253" transform="translate(970.814 4152.773)" fill="#fff"/>
    </g>
    <g id="Grupo_217" data-name="Grupo 217">
      <circle id="Elipse_142" data-name="Elipse 142" cx="2.253" cy="2.253" r="2.253" transform="translate(1017.379 4152.773)" fill="#fff"/>
    </g>
    <g id="Grupo_218" data-name="Grupo 218">
      <circle id="Elipse_143" data-name="Elipse 143" cx="2.253" cy="2.253" r="2.253" transform="translate(1017.379 4128.95)" fill="#fff"/>
    </g>
    <g id="Grupo_219" data-name="Grupo 219">
      <circle id="Elipse_144" data-name="Elipse 144" cx="2.253" cy="2.253" r="2.253" transform="translate(970.814 4128.95)" fill="#fff"/>
    </g>
    <g id="Grupo_220" data-name="Grupo 220">
      <path id="Trazado_20590" data-name="Trazado 20590" d="M996.272,4179.463c-18.585-2.277-23.249-21.2-24.375-32.283-.013-.116-.958-11.614.234-12.015l24.1-4.6.241,1.265-23.541,4.483c-.194,2.924-.939,21.136,7.658,32.7a22.431,22.431,0,0,0,15.841,9.167Z" fill="#fff"/>
    </g>
    <g id="Grupo_221" data-name="Grupo 221">
      <path id="Trazado_20591" data-name="Trazado 20591" d="M996.428,4179.463l-.156-1.278a22.429,22.429,0,0,0,15.84-9.167c8.6-11.565,7.852-29.779,7.658-32.7l-23.541-4.483.241-1.265,24.013,4.574c1.277.422.332,11.92.319,12.036C1019.676,4158.259,1015.013,4177.186,996.428,4179.463Z" fill="#fff"/>
    </g>
  </g>
</svg>
