<svg xmlns="http://www.w3.org/2000/svg" width="23.971" height="16.78" viewBox="0 0 23.971 16.78">
  <path id="Trazado_20428" data-name="Trazado 20428" d="M-303.43,206.251a5.26,5.26,0,0,0-5.26-5.26h-13.451a5.26,5.26,0,0,0-5.26,5.26v6.259a5.26,5.26,0,0,0,5.26,5.261h13.451a5.261,5.261,0,0,0,5.26-5.261Zm-7.911,3.6-6.032,2.984c-.237.128-1.04-.043-1.04-.312V206.4c0-.273.81-.443,1.046-.309l5.774,3.141C-311.349,209.367-311.1,209.717-311.34,209.85Z" transform="translate(327.401 -200.991)" fill="#fff"/>
</svg>
